<svg height="356" viewBox="0 0 692.164 355.452" width="693" xmlns="http://www.w3.org/2000/svg"><path d="m642.164 255.452h-12.979a11.674 11.674 0 0 1 -1.761-20.8 40 40 0 0 0 -5.736-79.584h-24.057a10.481 10.481 0 0 1 -1.356-19.089 30 30 0 0 0 -3.624-59.775h-404.632a30 30 0 1 0 0 60h125.693a9.911 9.911 0 0 1 -.172 18.864h-28.586a39.994 39.994 0 0 0 -3.251 79.857 10.706 10.706 0 0 1 -1.264 20.526h-167.828a50 50 0 0 0 0 100h529.553a50 50 0 0 0 0-100z" fill="#00e6b3"/><path d="m368.205 1.775h49.056a15.676 15.676 0 0 1 11.252 4.678 15.891 15.891 0 0 1 4.678 11.247 15.676 15.676 0 0 1 -4.678 11.253 15.891 15.891 0 0 1 -11.252 4.678h-49.056a15.676 15.676 0 0 1 -11.252-4.678 15.893 15.893 0 0 1 -4.678-11.253 15.676 15.676 0 0 1 4.678-11.252 15.466 15.466 0 0 1 11.252-4.673z" fill="#00e6b3"/><circle cx="165.57" cy="231.831" fill="#00e6b3" r="9.166"/><path d="m392.714 155.716a13.764 13.764 0 0 0 0 27.528l8.507.23a8.259 8.259 0 0 1 0 16.517l-76.992-.321a22.008 22.008 0 0 0 -1.3 43.979h92.652a8.259 8.259 0 1 1 0 16.517h-24.555a13.756 13.756 0 0 0 .489 27.5h178.118a13.756 13.756 0 0 0 .49-27.5h-13.147a8.259 8.259 0 1 1 0-16.517h37.951a21.994 21.994 0 0 0 2.315-43.658h-101.525a8.259 8.259 0 0 1 0-16.517l15.733-.23a13.764 13.764 0 1 0 0-27.528z" fill="#fff"/><g fill="#00e6b3"><path d="m584.164 219.693h-44.369v-44.838a2 2 0 0 0 -4 0v44.838h-91.595v-44.838a2 2 0 1 0 -4 0v44.838h-52.229a2 2 0 0 0 0 4h97.887v44.837a2 2 0 0 0 4 0v-44.837h94.306a2 2 0 0 0 0-4z"/><circle cx="516.206" cy="17.705" r="17.701"/><path d="m12.794 176.256h39.4a12.591 12.591 0 0 1 9.038 3.757 12.765 12.765 0 0 1 3.756 9.037 12.591 12.591 0 0 1 -3.756 9.037 12.764 12.764 0 0 1 -9.038 3.757h-39.4a12.587 12.587 0 0 1 -9.037-3.757 12.762 12.762 0 0 1 -3.757-9.037 12.591 12.591 0 0 1 3.757-9.037 12.419 12.419 0 0 1 9.037-3.757z"/><circle cx="99.565" cy="146.631" r="10.883"/><path d="m394.267 260.166a13.733 13.733 0 1 1 -13.733 13.734 13.733 13.733 0 0 1 13.733-13.733m0-4a17.733 17.733 0 1 0 17.733 17.733 17.753 17.753 0 0 0 -17.732-17.733z"/></g><path d="m394.266 260.166a13.652 13.652 0 0 0 -7.434 2.2v-.007l-58.924 26.266 66.36-.991a13.733 13.733 0 1 0 0-27.466z" fill="#fff"/></svg>