<svg xmlns="http://www.w3.org/2000/svg" viewBox="0 0 3000 3000" width="3000" height="3000"><g transform="translate(345.0 495.0) rotate(0.0 1060.5 529.5) scale(3.012698502883441 3.011011944533691)"><svg width="704.02" height="351.709" viewBox="0 0 704.02 351.709"><path d="m704.02 296.599-9.41 54.61-223.87.16-19.49-6.986-322.56.244-15.2 7.012-98.22.07L0 308.009l204.16-213.19 11.71-7.09 79-75.63 5.46-2.42 4.64 3.32v.01l37.24 26.69 8.17.47z" fill="#57b279"/><path d="M452.16 295.529c3.22 17.2 12.65 37.74 18.58 55.84l-357.25.27c10.87-25.12 26.91-53.27 34.9-62.13 6-12.71 17.22-20.56 26.52-31.61 10.07-11.97-2.56-22.93 8.5-34.13 6.98-7.07 67.46-45.12 49.63-54.52-8.83-4.66-64.44 22.17-42.37-12.34 7.68-12 17.22-19.54 30.11-32.2 13.09-12.86 73.71-60.41 83.59-75.9 6.17-9.67.74-35.14.6-35.8v-.01l3.36-3.32 42.05 30.49c4.06 20.09 10.56 30.44 21.19 47.83 19.68 32.22 104.37 78.27 130.37 107.56 15.57 17.54-53.9 76.8-49.78 99.97z" fill="#006"/><path d="M318.751 40.28c-11.065 12-38.141 36.609-56.141 48.849-8.428 5.731 12.766-21.404 6.48-20.88-17.28 1.44-34.607 15.689-47.328 21.552-5.5 2.524-11.543 3.825-17.598 5.013L294.972 0l13.354 9.676c12.921 16.162 18.865 21.453 10.425 30.604z" fill="#fff"/></svg></g><g transform="translate(1191.0 894.0) rotate(0.0 784.5 543.0) scale(2.994646282458702 3.008043608322808)"><svg width="523.935" height="361.032" viewBox="0 0 523.935 361.032"><path d="m336.332 41.862-7.362.158L286.82 5l-4.255 3.033L264.4 22.554l-12.559 8.825-7.12-1.36-36.996 26.379L0 176.818l7.868 98.991 1.919 66.841 507.37 18.382 6.778-160.584z" fill="#57b279"/><path d="M398.465 158.973c-102.197-4.774-206.374 13.15-311.459 41.475 29.605-18.866 60.456-34.936 87.368-57.321 27.501-22.883 85.037-74.048 90.073-110.93-4.583-3.056 13.004-21.515 13.004-21.515l5.116-7.648L286.82 0l49.512 41.862c1.324 2.875 2.094 5.444 1.992 7.447-.996 19.533 81.622 87.78 60.141 109.664z" fill="#006"/><path d="M282.565 3.033c-12.868 30.941-22.412 78.641-53.36 91.273-11.92 4.865 1.1-10.786-8.211-12-14.336-1.87-46.014 24.832-88.385 36.073a6.8 6.8 0 0 1-3.783-.101l-.07-.022c-2.219-.702-2.679-3.644-.785-4.994L256.84 21.379z" fill="#fff"/></svg></g><g transform="translate(261.0 1089.0) rotate(0.0 823.5 333.0) scale(3.0043396016468233 3.0124160390799917)"><svg width="548.207" height="221.085" viewBox="0 0 548.207 221.085"><path d="M548.207 189.855 0 221.085 78.546 78.976l9.975-1.975 114.72-71.565 1.298-5.058.611-.378z" fill="#57b279"/><path d="M232.039 53.348s-26.889-7.845-51.334 3.138 7.333-20.398-12.222-14.122c-19.556 6.276-17.112 32.95-63.557 37.657-11.226 1.133-19.816.538-26.38-1.046L204.539.378z" fill="#fff"/></svg></g><g transform="translate(2403.0 2484.0) rotate(0.0 153.0 85.5) scale(3.326557013491037 3.3260717342254726)"><svg width="91.987" height="51.412" viewBox="0 0 91.987 51.412"><ellipse cx="49.507" cy="36.33" fill="#006" rx="42.48" ry="14.4"/><path d="m57.741 51.405-38.881-.994A19.35 19.35 0 0 1 1.396 38.274c-3.627-9.035.024-19.358 8.525-24.104L30.903 2.455a19.353 19.353 0 0 1 20.52 1.035l17.861 12.484a19.353 19.353 0 0 1 7.994 12.632l.038.225c2.032 12.008-7.401 22.886-19.575 22.574z" fill="#57b279"/></svg></g><g transform="translate(114.0 1167.0) rotate(0.0 601.5 408.0) scale(2.9634921416958173 2.958000739500185)"><svg width="405.94" height="275.862" viewBox="0 0 405.94 275.862"><path d="M404.42 246.826c1.198-7.966 1.52-61.072 1.52-65.458-2.039-1.467-20.347-14.339-21.236-17.202 2.007.245 13.182 1.65 14.705 1.836-4.61-3.842-7.672-7.712-9.652-9.756-8.788-9.069-11.382-11.786-15.917-19.232 6.082.409 10.595 3.475 15.917 3.012v-.854c-7.13-6.957-13.511-14.383-18.865-23.212 4.236.11 6.85 2.548 10.584 2.54-1.656-4.043-8.662-13.292-9.484-14.82-8.327-15.472-15.608-31.234-16.522-48.732-.054-1.032-.218-2.201-1.535-2.257-1.242-.053-1.056 1.17-1.224 1.958-.654 3.055-1.228 6.126-1.959 9.166-3.769 15.679-8.028 31.224-15.909 45.753l-7.86 15.01c4.058-.575 5.626-3.376 8.5-4.122-.456 3.61-2.826 6.472-4.792 9.447-3.51 5.312-7.26 10.496-10.91 15.734l.787.59c4.302-1.259 7.66-4.256 12.08-5.3-.023 1.768-1.236 3.118-2.081 4.581-2.288 3.962-4.913 7.708-7.74 11.324a5.52 5.52 0 0 1-.165-.947c-.95 1.048-2.003 2.026-3.12 2.963-.433.363-.932.248-1.295-.103-2.672-2.58-5.288-5.199-7.821-8.875l12.324 3.403a12.11 12.11 0 0 1-.129-.526c-.068-.093-.339-.699-.417-.82.307.343.263.294-.131-.149a8.169 8.169 0 0 0-.724-.681 4.05 4.05 0 0 1-.678-.784 1.819 1.819 0 0 1-.856-.425c-4.082-3.445-8.212-6.853-11.959-11.287 2.931.307 4.961 1.734 8.035 1.854-5.26-5.082-10.613-9.381-14.603-15.139 2.577-.308 4.233 1.397 6.441 1.31.451-1.067-.65-1.531-1.029-2.236-3.951-2.676-6.78-6.182-9.195-9.996-.115-.221-.108-.331.194-.17 1.676.181 2.871 1.488 4.58 1.59-3.867-4.986-7.83-9.913-10.969-15.323-3.241-5.585-6.219-11.271-8.669-17.177-.248-.597-.235-1.407-1.359-1.796-.14 4.443.121 8.79-.505 13.118-.936 6.466-2.655 12.72-5.545 18.702-.317.656-.391 1.764-1.53 1.638-.86-.096-.898-1.067-1.127-1.7-1.654-4.57-2.831-9.253-4.368-14.013-.282 1.689-.581 3.376-.842 5.068-.668 4.334-6.764 20.114-9.076 23.576-.526.787-1.147 1.588-1.027 2.597-3.295-2.469-4.833-5.991-7.011-9.129 2.162.805 4.228 1.419 3.602.355-.9-1.53-1.44-2.145-1.828-2.911-.764-1.51-1.531-3.019-2.296-4.529-2.344-3.666-3.573-7.713-4.769-11.741-1.21-4.078-2.093-8.235-3.276-12.991-1.18 6.668-2.769 12.632-5.484 18.315-1.938 4.055-4.265 4.942-8.435 2.59-2.869-1.618-4.693-4.264-7.021-7.005 3.163-.08 5.254 1.582 8.712 1.711-4.806-3.863-8.651-7.61-12.166-12.087 2.428-.265 3.644 1.446 5.43 1.21-2.228-2.848-4.671-5.548-6.818-8.459-6.118-8.293-9.695-17.484-12.359-27.03-.179-.641-.066-1.419-1.076-1.911a290.942 290.942 0 0 1-2.034 14.527c-1.195 7.154-4.034 13.841-6.552 20.632-.231.623-1.014 1.282-.324 1.911.564.515 1.259-.067 1.886-.23.612-.159 1.232-.793 1.855-.226.576.525.158 1.194-.137 1.708-1.049 1.834-1.337 5.091-3.229 5.143-1.631.045-2.105-3.259-2.851-5.181-2.278-5.872-3.584-11.951-4.848-18.844-.719 2.56-1.481 4.372-1.705 6.237-.831 6.919-4.067 13.054-7.406 19.173-.181.332-.362.663-.798.645-.973-.042-1.211-.795-1.502-1.422-2.248-4.843-4.452-9.705-5.906-14.799-1.132-3.967-2.141-7.962-3.422-12.757-.723 3.304-1.235 5.885-1.876 8.44-.221.882-.066 2.213-1.226 2.447-1.014.204-1.436-1.028-2.006-1.682-4.627-5.32-8.584-11.031-12.117-16.982-.301-.506-.805-1.002-.428-1.824 3.553.997 6.252 3.463 9.727 4.537l.397-.418c-4.712-5.934-9.197-11.989-12.853-19.05 2.467.614 3.719 2.146 5.434 2.96.596.283 1.289 1.526 1.929.008-2.441-3.062-10.368-17.98-12.189-22.174-3.954-9.106-7.44-18.369-10.525-27.748-.212-.645-.491-1.272-.994-1.924-.398 14.902-3.911 29.015-12.373 41.94l-3.853 5.969.348.307 6.854-2.194c-1.594 4.598-5.153 8.096-8.28 11.828-1.427 1.703-3.012 3.298-4.526 4.942l.444.654 10.443-2.646c-4.872 8.25-11.78 14.818-19.147 21.123 4.023-.376 7.737-1.66 11.704-1.948-.029.355-.014.613-.064.669-3.066 3.454-4.08 4.847-6.864 6.74-2.86 1.945-5.369 4.307-8.039 6.478-.828.673-1.714 1.324-2.757.319-3.969-3.822-7.734-7.786-11.099-12.659 3.588.407 5.874 2.447 8.765 3.017.109-.103.22-.205.331-.306C85.526 78.68 80.356 73.153 76.629 66.7c-.52-.9-1.266-1.73-1.28-2.818 2.719.642 4.785 2.486 7.432 3.261l.484-.363c-2.246-3.222-4.553-6.412-6.713-9.68-1.209-1.83-2.667-3.591-2.948-5.812 1.768.459 2.733 2.183 5.229 2.536l-4.836-9.235c-4.849-8.939-7.469-18.503-9.788-28.15-.45-1.871-.803-3.76-1.205-5.64-.104-.485.011-1.238-.753-1.205-.811.035-.911.754-.945 1.389-.563 10.765-5.042 20.463-10.166 29.982-.506.94-4.817 6.63-5.835 9.118 2.297.005 3.906-1.495 6.512-1.563-3.294 5.432-7.22 10.001-11.606 14.281v.525c3.274.285 6.051-1.602 9.793-1.853-2.791 4.581-6.174 8.281-9.793 11.832l-6.384 5.822c.85-.104 6.939-.675 8.987-.893a73.265 73.265 0 0 1-2.718 4.406c-2.976 4.436-7.916 10.646-11.958 15.197 4.108-.582 10.696-3.418 13.605-4.174-1.194 3.313-2.862 6.553-4.851 9.564-3.553 5.378-7.527 10.891-11.046 15.929-.19.272-.581.904.797.598 4.356-1.275 8.011-3.378 12.23-5.366-.296 1.631-1.251 3.157-2.106 4.638-6.134 10.619-14.64 19.715-23.078 28.852.183.166.365.334.545.503 4.757-.938 8.106 1.515 17.423-2.965.818-.393 1.719-.832 2.646-1.281-4.131 8.809-8.573 17.481-13.167 25.95L7.498 196.13c7.04-.997 14.762-5.858 19.749-7.153-.792 6.264-4.904 11.23-8.315 16.392C12.841 214.588 6.333 223.583 0 232.672l1.365 1.024c7.466-2.185 13.292-7.384 20.96-9.196-.04 3.068-2.145 5.411-3.611 7.948-10.513 18.2-24.019 42.95-13.899 41.803-5.948 8.616 398.454-19.77 399.605-27.425zM161.397 89.229c-.332.778-.288 1.939-1.398 2.085-.932.123-1.344-.872-1.805-1.497-1.322-1.795-2.577-3.629-3.859-5.447 2.472.244 4.361 1.669 6.487 2.611 1.157.513.938 1.397.575 2.248zm96.084 46.471c-.712 1.048-1.51 1.042-2.212.029-1.363-1.965-3.067-3.765-4.111-6.528 1.65.775 2.8 1.357 3.992 1.859.824.347 1.841 1.026 2.141-.493 1.417.155 2.53-.719 4.458-1.187-1.614 2.391-2.935 4.358-4.268 6.32zm19.843-17.438c-.292.628-.526 1.468-1.45 1.45-.75-.015-.962-.78-1.235-1.321-.366-.724-.73-1.526.15-2.142 1.11-.776 2.189-1.67 3.965-1.748-.036 1.513-.89 2.597-1.43 3.761z" fill="#006"/></svg></g><g transform="translate(1638.0 1368.0) rotate(0.0 645.0 351.0) scale(3.0124139477100984 3.0088852123149987)"><svg width="428.228" height="233.309" viewBox="0 0 428.228 233.309"><g fill="#006"><path d="m213.18 66.883.021-.021c-.02-.002-.038.001-.058-.001zm-72.901 15.273.031-.031c-.024.001-.045.006-.069.007z"/><path d="M410.402 203.889c3.108.379 15.468 3.668 17.826 3.956 0-4.408-27.631-34.48-34.656-46.013 9.421.633 16.412 5.382 24.655 4.665v-1.322c-11.043-10.776-20.928-22.28-29.221-35.955 6.561.171 10.611 3.948 16.395 3.935-2.564-6.262-13.417-20.59-14.691-22.956-5.379-9.993-10.472-20.065-14.689-30.377 2.557.899 11.105 3.763 17.962 4.368-1.149-.64-17.916-24.503-18.417-25.752 1.131.107 10.838 2.392 11.696 2.473-5.64-4.88-13.264-14.07-15.821-17.319 3.429.178 5.973 1.516 8.973 1.314v-.372c-4.019-3.035-7.616-6.275-10.634-10.127 2.387.048 3.861 1.112 5.966 1.108-.933-1.764-4.883-5.799-5.346-6.466-4.694-6.75-8.798-13.627-9.313-21.261-.031-.45-.123-.96-.866-.985-.7-.023-.595.51-.69.854-.369 1.333-.692 2.673-1.104 3.999-2.125 6.841-4.525 13.623-8.968 19.961l-4.43 6.549c2.287-.251 3.171-1.473 4.791-1.799-.258 1.575-1.594 2.824-2.701 4.121-1.979 2.318-4.093 4.579-6.15 6.864l.443.258c2.425-.549 4.318-1.857 6.81-2.312-.013.771-.697 1.36-1.173 1.998-3.416 4.576-8.151 8.496-12.849 12.433.102.072.203.144.303.217 2.649-.404 4.743-1.851 8.03-2.14-3.082 3.455-6.532 6.267-10.168 8.977-.956.712-1.768.251-2.526-.226-2.446-1.54-9.175-4.289-13.654-9.373-.065-.016-.032-.222-.059-.474 3.634.204 7.037 1.115 10.723 1.381-6.75-4.471-13.079-9.128-17.542-14.979l9.567 1.877.406-.464c-1.387-1.166-2.84-2.297-4.146-3.504-2.865-2.646-6.126-5.127-7.586-8.388l6.28 1.556c.105-.073.211-.146.318-.218l-3.53-4.233c-7.752-9.163-10.971-19.17-11.335-29.738a4.112 4.112 0 0 0-.911 1.364 199.952 199.952 0 0 1-9.643 19.677c-1.668 2.974-3.016 6.086-5.808 8.712-1.201 2.553-3.124 4.841-5.36 7.012.587 1.076 1.221.195 1.768-.006 1.571-.577 2.718-1.664 4.979-2.099-3.35 5.007-7.459 9.301-11.776 13.508l.364.297c3.183-.762 5.657-2.511 8.912-3.217.346.583-.117.934-.392 1.293-3.237 4.22-6.862 8.27-11.102 12.042-.522.464-.909 1.338-1.838 1.193-1.062-.166-.92-1.11-1.123-1.735-.587-1.812-1.057-3.642-1.719-5.985-1.173 3.4-2.098 6.233-3.135 9.046-1.332 3.612-3.352 7.06-5.411 10.494-.267.445-.485.979-1.376 1.008-.399.013-.565-.222-.731-.457-3.059-4.34-6.024-8.69-6.785-13.596-.205-1.322-.904-2.607-1.562-4.422-1.158 4.887-2.354 9.199-4.442 13.362-.683 1.363-1.117 3.706-2.612 3.674-1.733-.037-1.997-2.347-2.958-3.647-.27-.365-.653-.839-.125-1.211.571-.402 1.139.047 1.7.16.575.116 1.211.528 1.729.163.632-.446-.085-.913-.297-1.355-2.306-4.815-4.908-9.557-6.002-14.63a162.515 162.515 0 0 1-1.864-10.301c-.926.349-.822.901-.986 1.355-2.441 6.769-5.719 13.287-11.324 19.167-1.968 2.064-4.206 3.979-6.247 5.998 1.636.167 2.751-1.046 4.975-.858-3.22 3.175-6.743 5.831-11.146 8.571 3.168-.091 5.084-1.27 7.982-1.213-2.133 1.944-3.804 3.82-6.432 4.967-3.821 1.667-5.954 1.039-7.729-1.837-2.488-4.03-3.944-8.26-5.025-12.988-1.084 3.372-1.892 6.32-3.001 9.212-1.095 2.856-2.221 5.726-4.369 8.326l-2.104 3.211c-.356.544-1.259 1.045-.776 1.677.576.754 1.515-.522 2.401.136-1.996 2.225-3.404 4.723-6.423 6.473.111-.715-.459-1.283-.941-1.842-2.118-2.455-3.541-5.112-4.838-7.81-2.056-2.801-2.865-5.835-3.477-8.909-.239-1.2-.513-2.396-.771-3.594-1.408 3.375-2.487 6.696-4.002 9.937-.21.449-.244 1.137-1.033 1.205-1.044.09-1.112-.697-1.402-1.161-2.648-4.242-4.223-8.677-5.08-13.262-.574-3.069-.335-6.151-.463-9.302-1.03.276-1.018.85-1.245 1.274-2.244 4.188-4.973 8.22-7.942 12.181-2.877 3.836-6.507 7.331-10.05 10.866 1.566-.072 2.661-.999 4.196-1.127.277-.114.283-.036.178.121-2.212 2.705-4.804 5.191-8.424 7.088-.347.5-1.356.829-.943 1.586 2.024.061 3.541-1.148 5.902-.929-3.655 4.083-8.56 7.132-13.379 10.736 2.815-.085 4.676-1.097 7.361-1.315-3.433 3.144-7.217 5.56-10.957 8.004-.723.472-1.498.405-2.098-.105-1.822-1.549-3.712-3.074-4.919-4.961 1.089-.227 2.021.685 2.677.076.631-.584-.404-1.121-.809-1.626-2.561-3.202-4.932-6.456-6.115-10.061-1.426-1.668-1.088-3.706-2.285-5.668l-.817 1.576c-.187 1.574-.848 3.057-1.766 4.492-.588 3.339-2.449 6.397-4.268 9.469-.905 1.529-2.472 2.855-2.862 4.539l.743-.228c.46-.576 1.092-.988 2.14-1.189-.071.836-.625 1.351-1.259 1.84-.728 1.598-2.498 2.792-3.456 4.3l.545.371c1.078-.168 1.902-.858 3.306-.83-1.051 1.999-2.837 3.527-4.438 5.123-2.371 2.363-2.776 2.347-5.047-.049-.185-.195-.273-.435-.403-.656.646-.151 1.4.167 2.211-.333-2.961-2.798-5.464-5.816-7.476-9.022-1.49-1.088-1.444-2.8-3.26-4.028l-.319 4.787c-.128 3.458-1.608 6.701-3.256 9.918l.465.298c.906-.279 1.173-.029.779.533-.873 1.245-1.821 2.464-2.738 3.694l.472.356 1.802-.23c-.368 1.447-1.78 2.511-2.85 3.697-.392.435-1.03.89-1.676.283-1.809-1.698-3.45-3.472-4.593-5.602 2.099-.049 3.304.779 4.813.894l.182-.123c-1.344-2.278-4.116-4.085-4.817-6.776l2.341.304c.114-.081.229-.161.345-.24-1.072-2.678-3.628-4.956-4.32-7.736-1.761-2.717-2.435-5.626-3.117-8.534-.469-.57.008-1.344-.915-1.953-.621.925-.396 1.999-1.44 2.71-.588 3.704-2.429 7.12-4.945 10.382-.536 1.534-1.85 2.801-2.942 4.145-.34.418-1.078.999-.297 1.292 1.81.679.418 1.227-.022 1.746-1.086 1.28-2.767 2.302-3.632 3.771-2.739-2.063-5.555-4.332-5.801-5.125 1.043.127 6.852.858 7.643.954-2.396-1.997-3.988-4.009-5.017-5.071-4.568-4.714-5.916-6.126-8.273-9.996 3.161.212 5.507 1.806 8.273 1.565v-.444c-3.706-3.616-7.023-7.476-9.806-12.065 2.202.057 3.561 1.325 5.502 1.32-.861-2.102-4.503-6.909-4.93-7.703-4.329-8.042-8.113-16.235-8.588-25.331-.028-.537-.113-1.144-.798-1.173-.646-.028-.549.608-.636 1.018-.34 1.588-.638 3.184-1.018 4.765-1.959 8.15-4.173 16.23-8.27 23.782l-4.085 7.802c2.109-.299 2.924-1.755 4.418-2.143-.237 1.876-1.469 3.364-2.491 4.91-1.824 2.761-3.774 5.456-5.671 8.178l.409.307c2.236-.655 3.982-2.212 6.279-2.755-.012.919-.643 1.621-1.082 2.381-3.149 5.452-7.516 10.122-11.848 14.813.094.085.187.172.28.258 2.443-.481 4.374-2.205 7.405-2.549-1.782 2.581-3.698 4.861-5.705 6.998 0 0-8.764 56.186-10.072 58.241-.935 1.469 26.807 13.095 34.874 15.021 8.469 2.021 302.086 36.819 345.386 38.27 9.981.334 39.945 0 39.945 0-.006-6.795-8.456-24.838-9.832-29.273zM4.245 154.863l-.006.006-.069-.074zm52.919-38.082.208-.025-.146.067a16.403 16.403 0 0 1-1.313 1.598c-.607-.444-1.251-.921-1.907-1.415 1.223.286 2.139-.367 3.158-.225zm38.98 2.06c-.921-.027-1.42-.517-1.48-1.11-.036-.358.479-.466 1.012-.435.547.199 1.532.092 1.483.796-.027.372-.443.765-1.015.749zm29.536-6.272c-.333.249-.79.331-1.187.073-2.488-1.615-4.672-3.386-5.833-5.696.523.659 3.346-.307 2.129 1.535l.388.288 11.668-2.494c-2.32 2.607-4.717 4.464-7.165 6.294zm39.951-28.616c-.25.383-.445.926-1.131.937-.847.013-1.062-.583-1.329-1.028-.494-.825-1.277-1.594-1.309-2.667 1.627.055 2.616.689 3.632 1.24.806.436.472 1.005.137 1.518zm17.747 12.295c-.644.718-1.375.723-2.027-.021-1.221-1.391-2.432-2.786-3.911-4.481 1.767.332 2.787.952 4.085.841.275 1.077 1.207.595 1.962.349 1.092-.356 2.146-.769 3.657-1.318-.956 1.96-2.517 3.236-3.766 4.63zm87.287-31.495c-1.018-.104-.978-.927-1.282-1.479-.333-.603-.533-1.231.527-1.594 1.948-.668 3.679-1.678 5.943-1.851-1.174 1.29-2.324 2.59-3.535 3.863-.421.443-.798 1.148-1.653 1.061z"/></g></svg></g><g transform="translate(69.0 1692.0) rotate(0.0 1423.5 432.0) scale(3.0250932923045535 3.0376222168313802)"><svg width="941.128" height="284.433" viewBox="0 0 941.128 284.433"><path d="M0 107.193c0 33.255 80.318 10.111 158.173 29.699 20.38 5.127-18.638 25.715-31.493 47.457-11.66 19.72 1.219 40.39 43.1 51.336 80.987 21.166 186.402 30.765 300.784 30.765 170.17 0 319.243-39.575 401.887-77.888 16.751-7.766 30.773-2.053 41.688-10.758 17.476-13.938 26.989-28.944 26.989-44.578C941.128 59.647 730.449 0 470.564 0S0 33.615 0 107.193z" fill="#57b279"/><path d="M127.036 209.859c-1.068-20.695 79.844-43.303 102.364-48.117 79.461-16.985 165.523-29.872 247.003-27.962 58.885 1.384 88.503 17.597 62.845 25.144-63.018 18.535-22.029 30.48 34.016 25.733 47.496-4.023 116.604-12.631 131.585-14.933 48.352-7.428 174.911-28.795 210.274 7.048-44.194 39.312-138.573 67.525-192.979 81.512-72.087 18.532-157.598 30.785-237.63 24.475-34.199-2.697-57.481-2.284-82.511-5.299-28.828-3.472-194.977-31.454-232.222-41.775-15.394-4.266-42.043-12.216-42.745-25.826z" fill="#006"/></svg></g><g transform="translate(426.0 2220.0) rotate(0.0 225.0 132.0) scale(3.2406973980800666 3.2500307768065984)"><svg width="138.859" height="81.23" viewBox="0 0 138.859 81.23"><ellipse cx="74.059" cy="62.51" fill="#006" rx="64.8" ry="18.72"/><path d="m78.17 77.886-50.644 1.283C15.873 80.801 5.181 67.847 2.355 52.675c-5.227-13.023.035-27.901 12.287-34.742L27.184 7.356c9.33-5.21 38.516-8.936 47.274-2.814l25.743 15.993a27.896 27.896 0 0 1 11.522 18.207l.055.324c2.928 17.306-16.061 39.268-33.608 38.82z" fill="#57b279"/><path d="M14.642 17.934C26.542 5.389 31.482 3.247 48.189.195c6.99-1.277 32.694 3.947 29.131 9.711-7.235 11.703-28.99 1.133-39.939 5.099C25.598 19.271 9.339 34.548 2.515 43.923.908 46.131 1.746 43.451.102 38.5c-1.366-4.113 11.392-17.248 14.54-20.566z" fill="#fff"/></svg></g><g transform="translate(1629.0 2394.0) rotate(0.0 231.0 157.5) scale(3.0444409299383204 3.0483969303126783)"><svg width="151.752" height="103.333" viewBox="0 0 151.752 103.333"><ellipse cx="91.272" cy="77.614" fill="#006" rx="60.48" ry="18.72"/><path d="m48.914 2.879 64.543 27.842a34.974 34.974 0 0 1 21.121 32.113c0 17.596-13.073 32.452-30.526 34.69l-43.078 5.523a34.975 34.975 0 0 1-33.72-15.551L5.702 54.535A34.977 34.977 0 0 1 .798 27.966l.088-.403C5.562 6.056 28.704-5.839 48.914 2.879z" fill="#57b279"/><path d="M85.689 25.166c-19.735-7.688-34.03-10.908-48.829-11.77-21.855-1.274-52.292 36.551-23.239 39.808 6.941.778 12.292-4.643 18.251-8.125 7.143-4.173 14.516-12.572 22.038-15.007 12.943-4.19 44.249 10.735 41.388.34-1.344-4.886-4.315-3.184-9.609-5.246z" fill="#fff"/></svg></g><g transform="translate(900.0 2325.0) rotate(0.0 390.0 204.0) scale(3.018599215164204 3.031676561722111)"><svg width="258.398" height="134.579" viewBox="0 0 258.398 134.579"><ellipse cx="162.638" cy="115.859" fill="#006" rx="95.76" ry="18.72"/><path d="M38.655 116.295c12.99 15.774 36.353 15.832 46.395 15.698 23.021-.306 49.75-1.331 82.313-4.758 16.896-1.779 30.88-6.468 41.836-11.716 18.001-8.623 24.37-31.013 13.721-47.894-13.949-22.115-36.709-51.164-65.335-62.615-26.508-10.603-80.323-2.522-124.042 7.099C2.306 18.984-10.559 56.486 9.917 81.057z" fill="#57b279"/><path d="M31.707 65.622C-14.597 50.656 97.679 4.651 136.08 9.781c10.567 1.412 21.166 5.591 29.788 10.646 12.259 7.187 16.36 12.09-.703 15.363-18.465 3.541-43.542-3.618-64.895-.016-30.242 5.101-54.123 34.516-68.563 29.848z" fill="#fff"/></svg></g><g transform="translate(2265.0 384.0) rotate(0.0 147.0 147.0) scale(2.835648148148148 2.835648148148148)"><svg width="103.68" height="103.68" viewBox="0 0 103.68 103.68"><path d="M102.915 51.84c0 2.726.386 5.384-.022 7.996-.001.009.12.034.164.047a51.603 51.603 0 0 1-5.772 16.908c-.084-.008-.263.029-.303.101-8.853 15.906-25.647 25.218-45.142 25.218-14.721 0-27.878-4.544-37.32-14.407-.005-.005-.116-.025-.121-.03C7.71 80.68 2.946 71.801.991 61.942c-.001-.008.099-.131.098-.138-.647-3.271-.364-6.567-.364-10.028 0-28.63 22.484-50.009 51.115-50.009s51.075 21.443 51.075 50.073z" fill="#57B279"/><g fill="#57B279"><path d="M43.831 66.607c15.253.137 37.691-5.094 59.225-6.724.408-2.622.624-5.307.624-8.043C103.68 23.209 80.47 0 51.84 0 23.209 0 0 23.209 0 51.84c0 3.458.346 6.833.991 10.102 17.348 1.901 34.311 4.588 42.84 4.665zm11.766 10.588c-15.029 2.77-25.782 9.024-41.198 10.478 9.437 9.858 22.717 16.007 37.441 16.007 19.584 0 36.626-10.863 45.444-26.889-16.051-.591-31.782-1.421-41.687.404z"/></g></svg></g></svg>